<svg width="285" height="223" viewBox="0 0 285 223" fill="none" xmlns="http://www.w3.org/2000/svg">
<g filter="url(#filter0_d_3273_3708)">
<rect x="135" y="161" width="104" height="54" rx="4" fill="#293539"/>
<rect x="135.5" y="161.5" width="103" height="53" rx="3.5" stroke="#9A9A9A"/>
</g>
<g filter="url(#filter1_d_3273_3708)">
<path d="M6 4H281V157H6V4Z" fill="#2A2A2A"/>
</g>
<g filter="url(#filter2_d_3273_3708)">
<rect x="187" y="97" width="44" height="139" rx="5.95" transform="rotate(90 187 97)" fill="#BDC8CE" shape-rendering="crispEdges"/>
<rect x="187" y="97" width="44" height="139" rx="5.95" transform="rotate(90 187 97)" stroke="#0D0D0D" stroke-width="1.7" shape-rendering="crispEdges"/>
<rect x="183.281" y="100.719" width="7.19657" height="131.562" rx="3.59828" transform="rotate(90 183.281 100.719)" fill="url(#paint0_linear_3273_3708)" stroke="#0D0D0D" stroke-width="0.6375"/>
<rect x="183.281" y="110.209" width="7.19657" height="131.562" rx="3.59828" transform="rotate(90 183.281 110.209)" fill="url(#paint1_linear_3273_3708)" stroke="#0D0D0D" stroke-width="0.6375"/>
<rect x="183.281" y="105.46" width="7.19657" height="131.562" rx="3.59828" transform="rotate(90 183.281 105.46)" fill="url(#paint2_linear_3273_3708)" stroke="#0D0D0D" stroke-width="0.6375"/>
<rect x="183.281" y="120.594" width="7.18936" height="131.562" rx="3.59468" transform="rotate(90 183.281 120.594)" fill="url(#paint3_linear_3273_3708)" stroke="#0D0D0D" stroke-width="0.6375"/>
<rect x="183.281" y="130.092" width="7.18936" height="131.562" rx="3.59468" transform="rotate(90 183.281 130.092)" fill="url(#paint4_linear_3273_3708)" stroke="#0D0D0D" stroke-width="0.6375"/>
<rect x="183.281" y="125.335" width="7.18936" height="131.562" rx="3.59468" transform="rotate(90 183.281 125.335)" fill="url(#paint5_linear_3273_3708)" stroke="#0D0D0D" stroke-width="0.6375"/>
</g>
<path d="M48 15.5V41.0177V78.4625C48 80.6923 49.8077 82.5 52.0375 82.5H256M256 82.5V37M256 82.5V181.266C256 183.496 254.192 185.303 251.963 185.303H168" stroke="url(#paint6_linear_3273_3708)" stroke-width="12" stroke-linecap="round"/>
<rect x="250.071" y="164.929" width="11.9287" height="12.3707" fill="#BBC8CF"/>
<line x1="250.071" y1="176.187" x2="262" y2="176.187" stroke="#9AAAB2" stroke-width="0.25"/>
<line x1="250.071" y1="174.522" x2="262" y2="174.522" stroke="#9AAAB2" stroke-width="0.25"/>
<line x1="250.071" y1="172.858" x2="262" y2="172.858" stroke="#9AAAB2" stroke-width="0.25"/>
<line x1="250.071" y1="166.198" x2="262" y2="166.198" stroke="#9AAAB2" stroke-width="0.25"/>
<line x1="250.071" y1="171.192" x2="262" y2="171.192" stroke="#9AAAB2" stroke-width="0.25"/>
<line x1="250.071" y1="169.528" x2="262" y2="169.528" stroke="#9AAAB2" stroke-width="0.25"/>
<line x1="250.071" y1="167.863" x2="262" y2="167.863" stroke="#9AAAB2" stroke-width="0.25"/>
<rect x="219" y="179" width="11.9287" height="12.3707" fill="#BBC8CF"/>
<line x1="219" y1="190.258" x2="230.929" y2="190.258" stroke="#9AAAB2" stroke-width="0.25"/>
<line x1="219" y1="188.594" x2="230.929" y2="188.594" stroke="#9AAAB2" stroke-width="0.25"/>
<line x1="219" y1="186.929" x2="230.929" y2="186.929" stroke="#9AAAB2" stroke-width="0.25"/>
<line x1="219" y1="180.27" x2="230.929" y2="180.27" stroke="#9AAAB2" stroke-width="0.25"/>
<line x1="219" y1="185.264" x2="230.929" y2="185.264" stroke="#9AAAB2" stroke-width="0.25"/>
<line x1="219" y1="183.599" x2="230.929" y2="183.599" stroke="#9AAAB2" stroke-width="0.25"/>
<line x1="219" y1="181.934" x2="230.929" y2="181.934" stroke="#9AAAB2" stroke-width="0.25"/>
<rect x="179" y="179" width="11.9287" height="12.3707" fill="#BBC8CF"/>
<line x1="179" y1="190.258" x2="190.929" y2="190.258" stroke="#9AAAB2" stroke-width="0.25"/>
<line x1="179" y1="188.594" x2="190.929" y2="188.594" stroke="#9AAAB2" stroke-width="0.25"/>
<line x1="179" y1="186.929" x2="190.929" y2="186.929" stroke="#9AAAB2" stroke-width="0.25"/>
<line x1="179" y1="180.27" x2="190.929" y2="180.27" stroke="#9AAAB2" stroke-width="0.25"/>
<line x1="179" y1="185.264" x2="190.929" y2="185.264" stroke="#9AAAB2" stroke-width="0.25"/>
<line x1="179" y1="183.599" x2="190.929" y2="183.599" stroke="#9AAAB2" stroke-width="0.25"/>
<line x1="179" y1="181.934" x2="190.929" y2="181.934" stroke="#9AAAB2" stroke-width="0.25"/>
<rect x="250.071" y="135" width="11.9287" height="12.3707" fill="#BBC8CF"/>
<line x1="250.071" y1="146.258" x2="262" y2="146.258" stroke="#9AAAB2" stroke-width="0.25"/>
<line x1="250.071" y1="144.594" x2="262" y2="144.594" stroke="#9AAAB2" stroke-width="0.25"/>
<line x1="250.071" y1="142.929" x2="262" y2="142.929" stroke="#9AAAB2" stroke-width="0.25"/>
<line x1="250.071" y1="136.27" x2="262" y2="136.27" stroke="#9AAAB2" stroke-width="0.25"/>
<line x1="250.071" y1="141.264" x2="262" y2="141.264" stroke="#9AAAB2" stroke-width="0.25"/>
<line x1="250.071" y1="139.599" x2="262" y2="139.599" stroke="#9AAAB2" stroke-width="0.25"/>
<line x1="250.071" y1="137.934" x2="262" y2="137.934" stroke="#9AAAB2" stroke-width="0.25"/>
<rect x="250.071" y="77" width="11.9287" height="12.3707" fill="#BBC8CF"/>
<line x1="250.071" y1="88.2583" x2="262" y2="88.2583" stroke="#9AAAB2" stroke-width="0.25"/>
<line x1="250.071" y1="86.5938" x2="262" y2="86.5938" stroke="#9AAAB2" stroke-width="0.25"/>
<line x1="250.071" y1="84.9292" x2="262" y2="84.9292" stroke="#9AAAB2" stroke-width="0.25"/>
<line x1="250.071" y1="78.2695" x2="262" y2="78.2695" stroke="#9AAAB2" stroke-width="0.25"/>
<line x1="250.071" y1="83.2637" x2="262" y2="83.2637" stroke="#9AAAB2" stroke-width="0.25"/>
<line x1="250.071" y1="81.5991" x2="262" y2="81.5991" stroke="#9AAAB2" stroke-width="0.25"/>
<line x1="250.071" y1="79.9341" x2="262" y2="79.9341" stroke="#9AAAB2" stroke-width="0.25"/>
<rect x="250.071" y="104" width="11.9287" height="12.3707" fill="#BBC8CF"/>
<line x1="250.071" y1="115.258" x2="262" y2="115.258" stroke="#9AAAB2" stroke-width="0.25"/>
<line x1="250.071" y1="113.594" x2="262" y2="113.594" stroke="#9AAAB2" stroke-width="0.25"/>
<line x1="250.071" y1="111.929" x2="262" y2="111.929" stroke="#9AAAB2" stroke-width="0.25"/>
<line x1="250.071" y1="105.27" x2="262" y2="105.27" stroke="#9AAAB2" stroke-width="0.25"/>
<line x1="250.071" y1="110.264" x2="262" y2="110.264" stroke="#9AAAB2" stroke-width="0.25"/>
<line x1="250.071" y1="108.599" x2="262" y2="108.599" stroke="#9AAAB2" stroke-width="0.25"/>
<line x1="250.071" y1="106.934" x2="262" y2="106.934" stroke="#9AAAB2" stroke-width="0.25"/>
<rect x="219" y="77" width="11.9287" height="11.5" fill="#BBC8CF"/>
<line x1="219" y1="87.4565" x2="230.929" y2="87.4565" stroke="#9AAAB2" stroke-width="0.25"/>
<line x1="219" y1="85.9097" x2="230.929" y2="85.9097" stroke="#9AAAB2" stroke-width="0.25"/>
<line x1="219" y1="84.3623" x2="230.929" y2="84.3623" stroke="#9AAAB2" stroke-width="0.25"/>
<line x1="219" y1="78.1714" x2="230.929" y2="78.1714" stroke="#9AAAB2" stroke-width="0.25"/>
<line x1="219" y1="82.814" x2="230.929" y2="82.814" stroke="#9AAAB2" stroke-width="0.25"/>
<line x1="219" y1="81.2666" x2="230.929" y2="81.2666" stroke="#9AAAB2" stroke-width="0.25"/>
<line x1="219" y1="79.7192" x2="230.929" y2="79.7192" stroke="#9AAAB2" stroke-width="0.25"/>
<rect x="183" y="77" width="11.9287" height="11.5" fill="#BBC8CF"/>
<line x1="183" y1="87.4565" x2="194.929" y2="87.4565" stroke="#9AAAB2" stroke-width="0.25"/>
<line x1="183" y1="85.9097" x2="194.929" y2="85.9097" stroke="#9AAAB2" stroke-width="0.25"/>
<line x1="183" y1="84.3623" x2="194.929" y2="84.3623" stroke="#9AAAB2" stroke-width="0.25"/>
<line x1="183" y1="78.1714" x2="194.929" y2="78.1714" stroke="#9AAAB2" stroke-width="0.25"/>
<line x1="183" y1="82.814" x2="194.929" y2="82.814" stroke="#9AAAB2" stroke-width="0.25"/>
<line x1="183" y1="81.2666" x2="194.929" y2="81.2666" stroke="#9AAAB2" stroke-width="0.25"/>
<line x1="183" y1="79.7192" x2="194.929" y2="79.7192" stroke="#9AAAB2" stroke-width="0.25"/>
<rect x="146" y="77" width="11.9287" height="11.5" fill="#BBC8CF"/>
<line x1="146" y1="87.4565" x2="157.929" y2="87.4565" stroke="#9AAAB2" stroke-width="0.25"/>
<line x1="146" y1="85.9097" x2="157.929" y2="85.9097" stroke="#9AAAB2" stroke-width="0.25"/>
<line x1="146" y1="84.3623" x2="157.929" y2="84.3623" stroke="#9AAAB2" stroke-width="0.25"/>
<line x1="146" y1="78.1714" x2="157.929" y2="78.1714" stroke="#9AAAB2" stroke-width="0.25"/>
<line x1="146" y1="82.814" x2="157.929" y2="82.814" stroke="#9AAAB2" stroke-width="0.25"/>
<line x1="146" y1="81.2666" x2="157.929" y2="81.2666" stroke="#9AAAB2" stroke-width="0.25"/>
<line x1="146" y1="79.7192" x2="157.929" y2="79.7192" stroke="#9AAAB2" stroke-width="0.25"/>
<rect x="109" y="77" width="11.9287" height="11.5" fill="#BBC8CF"/>
<line x1="109" y1="87.4565" x2="120.929" y2="87.4565" stroke="#9AAAB2" stroke-width="0.25"/>
<line x1="109" y1="85.9097" x2="120.929" y2="85.9097" stroke="#9AAAB2" stroke-width="0.25"/>
<line x1="109" y1="84.3623" x2="120.929" y2="84.3623" stroke="#9AAAB2" stroke-width="0.25"/>
<line x1="109" y1="78.1714" x2="120.929" y2="78.1714" stroke="#9AAAB2" stroke-width="0.25"/>
<line x1="109" y1="82.814" x2="120.929" y2="82.814" stroke="#9AAAB2" stroke-width="0.25"/>
<line x1="109" y1="81.2666" x2="120.929" y2="81.2666" stroke="#9AAAB2" stroke-width="0.25"/>
<line x1="109" y1="79.7192" x2="120.929" y2="79.7192" stroke="#9AAAB2" stroke-width="0.25"/>
<rect x="72" y="77" width="11.9287" height="11.5" fill="#BBC8CF"/>
<line x1="72" y1="87.4565" x2="83.9287" y2="87.4565" stroke="#9AAAB2" stroke-width="0.25"/>
<line x1="72" y1="85.9097" x2="83.9287" y2="85.9097" stroke="#9AAAB2" stroke-width="0.25"/>
<line x1="72" y1="84.3623" x2="83.9287" y2="84.3623" stroke="#9AAAB2" stroke-width="0.25"/>
<line x1="72" y1="78.1714" x2="83.9287" y2="78.1714" stroke="#9AAAB2" stroke-width="0.25"/>
<line x1="72" y1="82.814" x2="83.9287" y2="82.814" stroke="#9AAAB2" stroke-width="0.25"/>
<line x1="72" y1="81.2666" x2="83.9287" y2="81.2666" stroke="#9AAAB2" stroke-width="0.25"/>
<line x1="72" y1="79.7192" x2="83.9287" y2="79.7192" stroke="#9AAAB2" stroke-width="0.25"/>
<rect x="42" y="55" width="11.9287" height="11.5" fill="#BBC8CF"/>
<line x1="42" y1="65.4565" x2="53.9287" y2="65.4565" stroke="#9AAAB2" stroke-width="0.25"/>
<line x1="42" y1="63.9097" x2="53.9287" y2="63.9097" stroke="#9AAAB2" stroke-width="0.25"/>
<line x1="42" y1="62.3623" x2="53.9287" y2="62.3623" stroke="#9AAAB2" stroke-width="0.25"/>
<line x1="42" y1="56.1714" x2="53.9287" y2="56.1714" stroke="#9AAAB2" stroke-width="0.25"/>
<line x1="42" y1="60.814" x2="53.9287" y2="60.814" stroke="#9AAAB2" stroke-width="0.25"/>
<line x1="42" y1="59.2666" x2="53.9287" y2="59.2666" stroke="#9AAAB2" stroke-width="0.25"/>
<line x1="42" y1="57.7192" x2="53.9287" y2="57.7192" stroke="#9AAAB2" stroke-width="0.25"/>
<g filter="url(#filter3_d_3273_3708)">
<rect x="134" y="20" width="35" height="111" rx="5.95" transform="rotate(90 134 20)" fill="#BDC8CE" shape-rendering="crispEdges"/>
<rect x="134" y="20" width="35" height="111" rx="5.95" transform="rotate(90 134 20)" stroke="#0D0D0D" stroke-width="1.7" shape-rendering="crispEdges"/>
<rect x="130.281" y="23.7187" width="5.16175" height="103.562" rx="2.58087" transform="rotate(90 130.281 23.7187)" fill="url(#paint7_linear_3273_3708)" stroke="#0D0D0D" stroke-width="0.6375"/>
<rect x="130.281" y="30.744" width="5.16175" height="103.562" rx="2.58087" transform="rotate(90 130.281 30.744)" fill="url(#paint8_linear_3273_3708)" stroke="#0D0D0D" stroke-width="0.6375"/>
<rect x="130.281" y="27.2289" width="5.16175" height="103.562" rx="2.58087" transform="rotate(90 130.281 27.2289)" fill="url(#paint9_linear_3273_3708)" stroke="#0D0D0D" stroke-width="0.6375"/>
<rect x="130.281" y="39.0937" width="5.15639" height="103.562" rx="2.5782" transform="rotate(90 130.281 39.0937)" fill="url(#paint10_linear_3273_3708)" stroke="#0D0D0D" stroke-width="0.6375"/>
<rect x="130.281" y="46.1244" width="5.15639" height="103.562" rx="2.5782" transform="rotate(90 130.281 46.1244)" fill="url(#paint11_linear_3273_3708)" stroke="#0D0D0D" stroke-width="0.6375"/>
<rect x="130.281" y="42.6034" width="5.15639" height="103.562" rx="2.5782" transform="rotate(90 130.281 42.6034)" fill="url(#paint12_linear_3273_3708)" stroke="#0D0D0D" stroke-width="0.6375"/>
</g>
<path d="M276.749 155.902C277.715 155.902 278.499 155.181 278.499 154.292L278.499 72.0936L187.001 72.0937C185.62 72.0937 184.5 71.0642 184.5 69.7944C184.5 68.5245 185.62 67.4951 187.001 67.4951L278.499 67.4951L278.499 7.60991C278.499 6.72102 277.715 6.00041 276.748 6.00041L8.67574 6.00044C7.70903 6.00044 6.92537 6.72105 6.92537 7.60993L6.92538 67.4951L137.996 67.4951C139.377 67.4951 140.497 68.5245 140.497 69.7944C140.497 71.0642 139.377 72.0937 137.996 72.0937L6.92538 72.0936L6.92538 155.901L237.999 155.901C239.38 155.901 240.5 156.93 240.5 158.2C240.5 159.47 239.38 160.5 237.999 160.5L1.92426 160.5L1.92427 7.60993C1.92427 4.18134 4.94698 1.4019 8.67574 1.40189L276.748 1.40187C280.477 1.40187 283.5 4.18129 283.5 7.60991L283.5 154.292C283.5 157.721 280.477 160.5 276.749 160.5L267.501 160.5C266.12 160.5 265 159.471 265 158.201C265 156.931 266.12 155.902 267.501 155.902L276.749 155.902Z" fill="#586E73" stroke="#1C4B68" stroke-width="2" stroke-linecap="round" stroke-linejoin="round"/>
<path d="M193 17.25H244C247.176 17.25 249.75 19.8244 249.75 23V54C249.75 57.1756 247.176 59.75 244 59.75H193C189.824 59.75 187.25 57.1756 187.25 54V23L187.258 22.7041C187.412 19.666 189.924 17.25 193 17.25Z" fill="#303C3F" stroke="white" stroke-width="0.5"/>
<g filter="url(#filter4_d_3273_3708)">
<rect x="202.37" y="26.1912" width="8.94911" height="23.6167" rx="1.46432" fill="url(#paint13_linear_3273_3708)" stroke="#1A4B69" stroke-width="0.383331"/>
<rect x="225.589" y="26.1912" width="8.94911" height="23.6167" rx="1.46432" fill="url(#paint14_linear_3273_3708)" stroke="#1A4B69" stroke-width="0.383331"/>
<path d="M195.476 39.7419V39.7419C195.213 39.7431 194.999 39.5303 194.999 39.2674L194.999 37.3057C194.999 37.0421 195.212 36.828 195.476 36.8267V36.8267" stroke="#354853" stroke-width="1.10399" stroke-linecap="round" stroke-linejoin="round"/>
<path d="M241.524 39.7419V39.7419C241.787 39.7431 242.001 39.5303 242.001 39.2674L242.001 37.3057C242.001 37.0421 241.788 36.828 241.524 36.8267V36.8267" stroke="#354853" stroke-width="1.10399" stroke-linecap="round" stroke-linejoin="round"/>
<mask id="path-121-inside-1_3273_3708" fill="white">
<path d="M236.921 29.7788C239.464 29.7789 241.526 33.5906 241.526 38.2925C241.526 42.9943 239.464 46.8061 236.921 46.8062L236.919 46.8052L236.919 46.8062L200.081 46.8062L200.081 46.8052C197.538 46.8031 195.478 42.9932 195.478 38.2925C195.478 33.5918 197.538 29.7809 200.081 29.7788L236.921 29.7788Z"/>
</mask>
<path d="M236.921 29.7788C239.464 29.7789 241.526 33.5906 241.526 38.2925C241.526 42.9943 239.464 46.8061 236.921 46.8062L236.919 46.8052L236.919 46.8062L200.081 46.8062L200.081 46.8052C197.538 46.8031 195.478 42.9932 195.478 38.2925C195.478 33.5918 197.538 29.7809 200.081 29.7788L236.921 29.7788Z" fill="url(#paint15_linear_3273_3708)"/>
<path d="M236.921 29.7788L236.921 29.0121H236.921L236.921 29.7788ZM241.526 38.2925L242.293 38.2925V38.2925H241.526ZM236.921 46.8062L236.578 47.4919L236.74 47.5728L236.921 47.5728L236.921 46.8062ZM236.919 46.8052L237.262 46.1195L236.152 45.5647L236.152 46.8052H236.919ZM236.919 46.8062L236.919 47.5728H237.686L237.686 46.8062H236.919ZM200.081 46.8062H199.314L199.314 47.5728H200.081L200.081 46.8062ZM200.081 46.8052H200.848L200.848 46.0391L200.082 46.0385L200.081 46.8052ZM195.478 38.2925L194.711 38.2925L194.711 38.2925L195.478 38.2925ZM200.081 29.7788L200.081 29.0121L200.08 29.0121L200.081 29.7788ZM236.921 29.7788L236.921 30.5455C237.777 30.5455 238.725 31.1986 239.503 32.6372C240.265 34.0455 240.76 36.0436 240.76 38.2925H241.526H242.293C242.293 35.8395 241.757 33.5808 240.852 31.9077C239.963 30.265 238.608 29.0122 236.921 29.0121L236.921 29.7788ZM241.526 38.2925L240.76 38.2925C240.76 40.5413 240.265 42.5394 239.503 43.9477C238.725 45.3864 237.777 46.0395 236.921 46.0395L236.921 46.8062L236.921 47.5728C238.608 47.5728 239.963 46.3199 240.852 44.6772C241.757 43.0041 242.293 40.7454 242.293 38.2925L241.526 38.2925ZM236.921 46.8062L237.264 46.1204L237.262 46.1195L236.919 46.8052L236.576 47.4909L236.578 47.4919L236.921 46.8062ZM236.919 46.8052H236.152L236.152 46.8062H236.919H237.686L237.686 46.8052H236.919ZM236.919 46.8062L236.919 46.0395L200.081 46.0395L200.081 46.8062L200.081 47.5728L236.919 47.5728L236.919 46.8062ZM200.081 46.8062H200.848L200.848 46.8052H200.081H199.314L199.314 46.8062H200.081ZM200.081 46.8052L200.082 46.0385C199.225 46.0378 198.278 45.3844 197.5 43.9461C196.739 42.5381 196.244 40.5408 196.244 38.2925L195.478 38.2925L194.711 38.2925C194.711 40.7448 195.247 43.0028 196.151 44.6755C197.04 46.3179 198.394 47.5705 200.08 47.5718L200.081 46.8052ZM195.478 38.2925H196.244C196.244 36.0441 196.739 34.0465 197.5 32.6383C198.278 31.1997 199.225 30.5462 200.082 30.5455L200.081 29.7788L200.08 29.0121C198.394 29.0135 197.04 30.2665 196.151 31.909C195.247 33.5819 194.711 35.8401 194.711 38.2925H195.478ZM200.081 29.7788L200.081 30.5455L236.921 30.5455L236.921 29.7788L236.921 29.0121L200.081 29.0121L200.081 29.7788Z" fill="#1A4B69" mask="url(#path-121-inside-1_3273_3708)"/>
<path d="M200.306 30.5923L200.306 46.018" stroke="#34474D" stroke-opacity="0.5" stroke-width="0.275998"/>
<path d="M236.702 30.5923L236.702 46.018" stroke="#34474D" stroke-opacity="0.5" stroke-width="0.275998"/>
<path d="M199.64 43.5482V43.5482C200.777 43.5482 201.7 42.6259 201.7 41.4883L201.7 30.6587C201.7 29.4392 202.688 28.4507 203.908 28.4507L234.417 28.4507C234.926 28.4507 235.339 28.8635 235.339 29.3727V29.3727" stroke="#354853" stroke-width="1.10399" stroke-linecap="round" stroke-linejoin="round"/>
<path d="M232.473 36.7666C233.298 36.7669 233.972 37.444 233.972 38.2861C233.972 39.1283 233.298 39.8054 232.473 39.8057C231.647 39.8057 230.973 39.1284 230.973 38.2861C230.973 37.4438 231.647 36.7666 232.473 36.7666Z" fill="#88999A" stroke="#40565F" stroke-width="0.551996"/>
<ellipse cx="232.471" cy="38.2856" rx="0.523335" ry="0.529211" fill="#1A4B69"/>
<rect x="215.592" y="43.4313" width="10.2846" height="10.2785" rx="0.976215" transform="rotate(-180 215.592 43.4313)" fill="#72898A" fill-opacity="0.7" stroke="#1A4B69" stroke-width="0.255554"/>
<rect x="222.236" y="40.8761" width="5.17108" height="5.16794" rx="0.976215" transform="rotate(-180 222.236 40.8761)" fill="#788C8D" fill-opacity="0.5" stroke="#1A4B69" stroke-width="0.255554"/>
<mask id="path-130-inside-2_3273_3708" fill="white">
<path d="M206.654 39.015C206.654 38.8835 206.761 38.7769 206.892 38.7769V38.7769C207.024 38.7769 207.131 38.8835 207.131 39.015L207.131 41.9044C207.131 42.0359 207.024 42.1426 206.892 42.1426V42.1426C206.761 42.1426 206.654 42.0359 206.654 41.9044L206.654 39.015Z"/>
</mask>
<path d="M206.654 39.015C206.654 38.8835 206.761 38.7769 206.892 38.7769V38.7769C207.024 38.7769 207.131 38.8835 207.131 39.015L207.131 41.9044C207.131 42.0359 207.024 42.1426 206.892 42.1426V42.1426C206.761 42.1426 206.654 42.0359 206.654 41.9044L206.654 39.015Z" fill="#41565F"/>
<path d="M206.654 38.9639C206.654 38.8041 206.784 38.6746 206.944 38.6746C207.103 38.6746 207.233 38.8041 207.233 38.9639L207.028 39.015C207.028 38.9399 206.968 38.8791 206.892 38.8791C206.761 38.8791 206.654 38.9399 206.654 39.015L206.654 38.9639ZM207.131 42.1426L206.654 42.1426L207.131 42.1426ZM206.654 42.1426L206.654 38.7769L206.654 42.1426ZM206.944 38.6746C207.103 38.6746 207.233 38.8041 207.233 38.9639L207.233 41.8022C207.233 41.9902 207.08 42.1426 206.892 42.1426C206.968 42.1426 207.028 42.0359 207.028 41.9044L207.028 39.015C207.028 38.9399 206.968 38.8791 206.892 38.8791L206.944 38.6746Z" fill="#1A4B69" mask="url(#path-130-inside-2_3273_3708)"/>
<mask id="path-132-inside-3_3273_3708" fill="white">
<path d="M206.654 34.6996C206.654 34.5681 206.761 34.4614 206.892 34.4614V34.4614C207.024 34.4614 207.131 34.5681 207.131 34.6996L207.131 37.589C207.131 37.7205 207.024 37.8271 206.892 37.8271V37.8271C206.761 37.8271 206.654 37.7205 206.654 37.589L206.654 34.6996Z"/>
</mask>
<path d="M206.654 34.6996C206.654 34.5681 206.761 34.4614 206.892 34.4614V34.4614C207.024 34.4614 207.131 34.5681 207.131 34.6996L207.131 37.589C207.131 37.7205 207.024 37.8271 206.892 37.8271V37.8271C206.761 37.8271 206.654 37.7205 206.654 37.589L206.654 34.6996Z" fill="#41565F"/>
<path d="M206.654 34.6485C206.654 34.4887 206.784 34.3592 206.944 34.3592C207.103 34.3592 207.233 34.4887 207.233 34.6485L207.028 34.6996C207.028 34.6245 206.968 34.5636 206.892 34.5636C206.761 34.5636 206.654 34.6245 206.654 34.6996L206.654 34.6485ZM207.131 37.8271L206.654 37.8271L207.131 37.8271ZM206.654 37.8271L206.654 34.4614L206.654 37.8271ZM206.944 34.3592C207.103 34.3592 207.233 34.4887 207.233 34.6485L207.233 37.4868C207.233 37.6747 207.08 37.8271 206.892 37.8271C206.968 37.8271 207.028 37.7205 207.028 37.589L207.028 34.6996C207.028 34.6245 206.968 34.5636 206.892 34.5636L206.944 34.3592Z" fill="#1A4B69" mask="url(#path-132-inside-3_3273_3708)"/>
<mask id="path-134-inside-4_3273_3708" fill="white">
<path d="M207.664 39.015C207.664 38.8835 207.771 38.7769 207.902 38.7769V38.7769C208.034 38.7769 208.14 38.8835 208.14 39.015L208.14 41.9044C208.14 42.0359 208.034 42.1426 207.902 42.1426V42.1426C207.771 42.1426 207.664 42.0359 207.664 41.9044L207.664 39.015Z"/>
</mask>
<path d="M207.664 39.015C207.664 38.8835 207.771 38.7769 207.902 38.7769V38.7769C208.034 38.7769 208.14 38.8835 208.14 39.015L208.14 41.9044C208.14 42.0359 208.034 42.1426 207.902 42.1426V42.1426C207.771 42.1426 207.664 42.0359 207.664 41.9044L207.664 39.015Z" fill="#41565F"/>
<path d="M207.664 38.9639C207.664 38.8041 207.794 38.6746 207.953 38.6746C208.113 38.6746 208.243 38.8041 208.243 38.9639L208.038 39.015C208.038 38.9399 207.977 38.8791 207.902 38.8791C207.771 38.8791 207.664 38.9399 207.664 39.015L207.664 38.9639ZM208.14 42.1426L207.664 42.1426L208.14 42.1426ZM207.664 42.1426L207.664 38.7769L207.664 42.1426ZM207.953 38.6746C208.113 38.6746 208.243 38.8041 208.243 38.9639L208.243 41.8022C208.243 41.9902 208.09 42.1426 207.902 42.1426C207.977 42.1426 208.038 42.0359 208.038 41.9044L208.038 39.015C208.038 38.9399 207.977 38.8791 207.902 38.8791L207.953 38.6746Z" fill="#1A4B69" mask="url(#path-134-inside-4_3273_3708)"/>
<mask id="path-136-inside-5_3273_3708" fill="white">
<path d="M207.664 34.6996C207.664 34.5681 207.771 34.4614 207.902 34.4614V34.4614C208.034 34.4614 208.14 34.5681 208.14 34.6996L208.14 37.589C208.14 37.7205 208.034 37.8271 207.902 37.8271V37.8271C207.771 37.8271 207.664 37.7205 207.664 37.589L207.664 34.6996Z"/>
</mask>
<path d="M207.664 34.6996C207.664 34.5681 207.771 34.4614 207.902 34.4614V34.4614C208.034 34.4614 208.14 34.5681 208.14 34.6996L208.14 37.589C208.14 37.7205 208.034 37.8271 207.902 37.8271V37.8271C207.771 37.8271 207.664 37.7205 207.664 37.589L207.664 34.6996Z" fill="#41565F"/>
<path d="M207.664 34.6485C207.664 34.4887 207.794 34.3592 207.953 34.3592H207.953C208.113 34.3592 208.243 34.4887 208.243 34.6485L208.038 34.6996C208.038 34.6245 207.977 34.5636 207.902 34.5636H207.902C207.771 34.5636 207.664 34.6245 207.664 34.6996L207.664 34.6485ZM208.14 37.8271L207.664 37.8271L208.14 37.8271ZM207.664 37.8271L207.664 34.4614L207.664 37.8271ZM207.953 34.3592C208.113 34.3592 208.243 34.4887 208.243 34.6485L208.243 37.4868C208.243 37.6747 208.09 37.8271 207.902 37.8271H207.902C207.977 37.8271 208.038 37.7205 208.038 37.589L208.038 34.6996C208.038 34.6245 207.977 34.5636 207.902 34.5636L207.953 34.3592Z" fill="#1A4B69" mask="url(#path-136-inside-5_3273_3708)"/>
<mask id="path-138-inside-6_3273_3708" fill="white">
<path d="M208.678 39.015C208.678 38.8835 208.785 38.7769 208.916 38.7769V38.7769C209.048 38.7769 209.155 38.8835 209.155 39.015L209.155 41.9044C209.155 42.0359 209.048 42.1426 208.916 42.1426V42.1426C208.785 42.1426 208.678 42.0359 208.678 41.9044L208.678 39.015Z"/>
</mask>
<path d="M208.678 39.015C208.678 38.8835 208.785 38.7769 208.916 38.7769V38.7769C209.048 38.7769 209.155 38.8835 209.155 39.015L209.155 41.9044C209.155 42.0359 209.048 42.1426 208.916 42.1426V42.1426C208.785 42.1426 208.678 42.0359 208.678 41.9044L208.678 39.015Z" fill="#41565F"/>
<path d="M208.678 38.9639C208.678 38.8041 208.808 38.6746 208.967 38.6746C209.127 38.6746 209.257 38.8041 209.257 38.9639L209.052 39.015C209.052 38.9399 208.991 38.8791 208.916 38.8791C208.785 38.8791 208.678 38.9399 208.678 39.015L208.678 38.9639ZM209.155 42.1426L208.678 42.1426L209.155 42.1426ZM208.678 42.1426L208.678 38.7769L208.678 42.1426ZM208.967 38.6746C209.127 38.6746 209.257 38.8041 209.257 38.9639L209.257 41.8022C209.257 41.9902 209.104 42.1426 208.916 42.1426C208.991 42.1426 209.052 42.0359 209.052 41.9044L209.052 39.015C209.052 38.9399 208.991 38.8791 208.916 38.8791L208.967 38.6746Z" fill="#1A4B69" mask="url(#path-138-inside-6_3273_3708)"/>
<mask id="path-140-inside-7_3273_3708" fill="white">
<path d="M208.678 34.6996C208.678 34.5681 208.785 34.4614 208.916 34.4614V34.4614C209.048 34.4614 209.155 34.5681 209.155 34.6996L209.155 37.589C209.155 37.7205 209.048 37.8271 208.916 37.8271V37.8271C208.785 37.8271 208.678 37.7205 208.678 37.589L208.678 34.6996Z"/>
</mask>
<path d="M208.678 34.6996C208.678 34.5681 208.785 34.4614 208.916 34.4614V34.4614C209.048 34.4614 209.155 34.5681 209.155 34.6996L209.155 37.589C209.155 37.7205 209.048 37.8271 208.916 37.8271V37.8271C208.785 37.8271 208.678 37.7205 208.678 37.589L208.678 34.6996Z" fill="#41565F"/>
<path d="M208.678 34.6485C208.678 34.4887 208.808 34.3592 208.967 34.3592C209.127 34.3592 209.257 34.4887 209.257 34.6485L209.052 34.6996C209.052 34.6245 208.991 34.5636 208.916 34.5636C208.785 34.5636 208.678 34.6245 208.678 34.6996L208.678 34.6485ZM209.155 37.8271L208.678 37.8271L209.155 37.8271ZM208.678 37.8271L208.678 34.4614L208.678 37.8271ZM208.967 34.3592C209.127 34.3592 209.257 34.4887 209.257 34.6485L209.257 37.4868C209.257 37.6747 209.104 37.8271 208.916 37.8271C208.991 37.8271 209.052 37.7205 209.052 37.589L209.052 34.6996C209.052 34.6245 208.991 34.5636 208.916 34.5636L208.967 34.3592Z" fill="#1A4B69" mask="url(#path-140-inside-7_3273_3708)"/>
<mask id="path-142-inside-8_3273_3708" fill="white">
<path d="M209.688 39.015C209.688 38.8835 209.795 38.7769 209.926 38.7769V38.7769C210.058 38.7769 210.164 38.8835 210.164 39.015L210.164 41.9044C210.164 42.0359 210.058 42.1426 209.926 42.1426V42.1426C209.795 42.1426 209.688 42.0359 209.688 41.9044L209.688 39.015Z"/>
</mask>
<path d="M209.688 39.015C209.688 38.8835 209.795 38.7769 209.926 38.7769V38.7769C210.058 38.7769 210.164 38.8835 210.164 39.015L210.164 41.9044C210.164 42.0359 210.058 42.1426 209.926 42.1426V42.1426C209.795 42.1426 209.688 42.0359 209.688 41.9044L209.688 39.015Z" fill="#41565F"/>
<path d="M209.688 38.9639C209.688 38.8041 209.817 38.6746 209.977 38.6746H209.977C210.137 38.6746 210.267 38.8041 210.267 38.9639L210.062 39.015C210.062 38.9399 210.001 38.8791 209.926 38.8791H209.926C209.795 38.8791 209.688 38.9399 209.688 39.015L209.688 38.9639ZM210.164 42.1426L209.688 42.1426L210.164 42.1426ZM209.688 42.1426L209.688 38.7769L209.688 42.1426ZM209.977 38.6746C210.137 38.6746 210.267 38.8041 210.267 38.9639L210.267 41.8022C210.267 41.9902 210.114 42.1426 209.926 42.1426H209.926C210.001 42.1426 210.062 42.0359 210.062 41.9044L210.062 39.015C210.062 38.9399 210.001 38.8791 209.926 38.8791L209.977 38.6746Z" fill="#1A4B69" mask="url(#path-142-inside-8_3273_3708)"/>
<mask id="path-144-inside-9_3273_3708" fill="white">
<path d="M209.692 34.6996C209.692 34.5681 209.799 34.4614 209.93 34.4614V34.4614C210.062 34.4614 210.168 34.5681 210.168 34.6996L210.168 37.589C210.168 37.7205 210.062 37.8271 209.93 37.8271V37.8271C209.799 37.8271 209.692 37.7205 209.692 37.589L209.692 34.6996Z"/>
</mask>
<path d="M209.692 34.6996C209.692 34.5681 209.799 34.4614 209.93 34.4614V34.4614C210.062 34.4614 210.168 34.5681 210.168 34.6996L210.168 37.589C210.168 37.7205 210.062 37.8271 209.93 37.8271V37.8271C209.799 37.8271 209.692 37.7205 209.692 37.589L209.692 34.6996Z" fill="#41565F"/>
<path d="M209.692 34.6485C209.692 34.4887 209.821 34.3592 209.981 34.3592H209.981C210.141 34.3592 210.27 34.4887 210.27 34.6485L210.066 34.6996C210.066 34.6245 210.005 34.5636 209.93 34.5636H209.93C209.799 34.5636 209.692 34.6245 209.692 34.6996L209.692 34.6485ZM210.168 37.8271L209.692 37.8271L210.168 37.8271ZM209.692 37.8271L209.692 34.4614L209.692 37.8271ZM209.981 34.3592C210.141 34.3592 210.27 34.4887 210.27 34.6485L210.27 37.4868C210.27 37.6747 210.118 37.8271 209.93 37.8271H209.93C210.005 37.8271 210.066 37.7205 210.066 37.589L210.066 34.6996C210.066 34.6245 210.005 34.5636 209.93 34.5636L209.981 34.3592Z" fill="#1A4B69" mask="url(#path-144-inside-9_3273_3708)"/>
<mask id="path-146-inside-10_3273_3708" fill="white">
<path d="M210.702 39.015C210.702 38.8835 210.808 38.7769 210.94 38.7769V38.7769C211.071 38.7769 211.178 38.8835 211.178 39.015L211.178 41.9044C211.178 42.0359 211.071 42.1426 210.94 42.1426V42.1426C210.808 42.1426 210.702 42.0359 210.702 41.9044L210.702 39.015Z"/>
</mask>
<path d="M210.702 39.015C210.702 38.8835 210.808 38.7769 210.94 38.7769V38.7769C211.071 38.7769 211.178 38.8835 211.178 39.015L211.178 41.9044C211.178 42.0359 211.071 42.1426 210.94 42.1426V42.1426C210.808 42.1426 210.702 42.0359 210.702 41.9044L210.702 39.015Z" fill="#41565F"/>
<path d="M210.702 38.9639C210.702 38.8041 210.831 38.6746 210.991 38.6746H210.991C211.151 38.6746 211.28 38.8041 211.28 38.9639L211.076 39.015C211.076 38.9399 211.015 38.8791 210.94 38.8791H210.94C210.808 38.8791 210.702 38.9399 210.702 39.015L210.702 38.9639ZM211.178 42.1426L210.702 42.1426L211.178 42.1426ZM210.702 42.1426L210.702 38.7769L210.702 42.1426ZM210.991 38.6746C211.151 38.6746 211.28 38.8041 211.28 38.9639L211.28 41.8022C211.28 41.9902 211.128 42.1426 210.94 42.1426H210.94C211.015 42.1426 211.076 42.0359 211.076 41.9044L211.076 39.015C211.076 38.9399 211.015 38.8791 210.94 38.8791L210.991 38.6746Z" fill="#1A4B69" mask="url(#path-146-inside-10_3273_3708)"/>
<mask id="path-148-inside-11_3273_3708" fill="white">
<path d="M210.702 34.6996C210.702 34.5681 210.808 34.4614 210.94 34.4614V34.4614C211.071 34.4614 211.178 34.5681 211.178 34.6996L211.178 37.589C211.178 37.7205 211.071 37.8271 210.94 37.8271V37.8271C210.808 37.8271 210.702 37.7205 210.702 37.589L210.702 34.6996Z"/>
</mask>
<path d="M210.702 34.6996C210.702 34.5681 210.808 34.4614 210.94 34.4614V34.4614C211.071 34.4614 211.178 34.5681 211.178 34.6996L211.178 37.589C211.178 37.7205 211.071 37.8271 210.94 37.8271V37.8271C210.808 37.8271 210.702 37.7205 210.702 37.589L210.702 34.6996Z" fill="#41565F"/>
<path d="M210.702 34.6485C210.702 34.4887 210.831 34.3592 210.991 34.3592C211.151 34.3592 211.28 34.4887 211.28 34.6485L211.076 34.6996C211.076 34.6245 211.015 34.5636 210.94 34.5636C210.808 34.5636 210.702 34.6245 210.702 34.6996L210.702 34.6485ZM211.178 37.8271L210.702 37.8271L211.178 37.8271ZM210.702 37.8271L210.702 34.4614L210.702 37.8271ZM210.991 34.3592C211.151 34.3592 211.28 34.4887 211.28 34.6485L211.28 37.4868C211.28 37.6747 211.128 37.8271 210.94 37.8271C211.015 37.8271 211.076 37.7205 211.076 37.589L211.076 34.6996C211.076 34.6245 211.015 34.5636 210.94 34.5636L210.991 34.3592Z" fill="#1A4B69" mask="url(#path-148-inside-11_3273_3708)"/>
<mask id="path-150-inside-12_3273_3708" fill="white">
<path d="M211.712 39.015C211.712 38.8835 211.819 38.7769 211.95 38.7769V38.7769C212.082 38.7769 212.188 38.8835 212.188 39.015L212.188 41.9044C212.188 42.0359 212.082 42.1426 211.95 42.1426V42.1426C211.819 42.1426 211.712 42.0359 211.712 41.9044L211.712 39.015Z"/>
</mask>
<path d="M211.712 39.015C211.712 38.8835 211.819 38.7769 211.95 38.7769V38.7769C212.082 38.7769 212.188 38.8835 212.188 39.015L212.188 41.9044C212.188 42.0359 212.082 42.1426 211.95 42.1426V42.1426C211.819 42.1426 211.712 42.0359 211.712 41.9044L211.712 39.015Z" fill="#41565F"/>
<path d="M211.712 38.9639C211.712 38.8041 211.841 38.6746 212.001 38.6746C212.161 38.6746 212.29 38.8041 212.29 38.9639L212.086 39.015C212.086 38.9399 212.025 38.8791 211.95 38.8791C211.819 38.8791 211.712 38.9399 211.712 39.015L211.712 38.9639ZM212.188 42.1426L211.712 42.1426L212.188 42.1426ZM211.712 42.1426L211.712 38.7769L211.712 42.1426ZM212.001 38.6746C212.161 38.6746 212.29 38.8041 212.29 38.9639L212.29 41.8022C212.29 41.9902 212.138 42.1426 211.95 42.1426C212.025 42.1426 212.086 42.0359 212.086 41.9044L212.086 39.015C212.086 38.9399 212.025 38.8791 211.95 38.8791L212.001 38.6746Z" fill="#1A4B69" mask="url(#path-150-inside-12_3273_3708)"/>
<mask id="path-152-inside-13_3273_3708" fill="white">
<path d="M211.712 34.6996C211.712 34.5681 211.819 34.4614 211.95 34.4614V34.4614C212.082 34.4614 212.188 34.5681 212.188 34.6996L212.188 37.589C212.188 37.7205 212.082 37.8271 211.95 37.8271V37.8271C211.819 37.8271 211.712 37.7205 211.712 37.589L211.712 34.6996Z"/>
</mask>
<path d="M211.712 34.6996C211.712 34.5681 211.819 34.4614 211.95 34.4614V34.4614C212.082 34.4614 212.188 34.5681 212.188 34.6996L212.188 37.589C212.188 37.7205 212.082 37.8271 211.95 37.8271V37.8271C211.819 37.8271 211.712 37.7205 211.712 37.589L211.712 34.6996Z" fill="#41565F"/>
<path d="M211.712 34.6485C211.712 34.4887 211.841 34.3592 212.001 34.3592C212.161 34.3592 212.29 34.4887 212.29 34.6485L212.086 34.6996C212.086 34.6245 212.025 34.5636 211.95 34.5636C211.819 34.5636 211.712 34.6245 211.712 34.6996L211.712 34.6485ZM212.188 37.8271L211.712 37.8271L212.188 37.8271ZM211.712 37.8271L211.712 34.4614L211.712 37.8271ZM212.001 34.3592C212.161 34.3592 212.29 34.4887 212.29 34.6485L212.29 37.4868C212.29 37.6747 212.138 37.8271 211.95 37.8271C212.025 37.8271 212.086 37.7205 212.086 37.589L212.086 34.6996C212.086 34.6245 212.025 34.5636 211.95 34.5636L212.001 34.3592Z" fill="#1A4B69" mask="url(#path-152-inside-13_3273_3708)"/>
<mask id="path-154-inside-14_3273_3708" fill="white">
<path d="M212.726 39.015C212.726 38.8835 212.832 38.7769 212.964 38.7769V38.7769C213.095 38.7769 213.202 38.8835 213.202 39.015L213.202 41.9044C213.202 42.0359 213.095 42.1426 212.964 42.1426V42.1426C212.832 42.1426 212.726 42.0359 212.726 41.9044L212.726 39.015Z"/>
</mask>
<path d="M212.726 39.015C212.726 38.8835 212.832 38.7769 212.964 38.7769V38.7769C213.095 38.7769 213.202 38.8835 213.202 39.015L213.202 41.9044C213.202 42.0359 213.095 42.1426 212.964 42.1426V42.1426C212.832 42.1426 212.726 42.0359 212.726 41.9044L212.726 39.015Z" fill="#41565F"/>
<path d="M212.726 38.9639C212.726 38.8041 212.855 38.6746 213.015 38.6746C213.175 38.6746 213.304 38.8041 213.304 38.9639L213.1 39.015C213.1 38.9399 213.039 38.8791 212.964 38.8791C212.832 38.8791 212.726 38.9399 212.726 39.015L212.726 38.9639ZM213.202 42.1426L212.726 42.1426L213.202 42.1426ZM212.726 42.1426L212.726 38.7769L212.726 42.1426ZM213.015 38.6746C213.175 38.6746 213.304 38.8041 213.304 38.9639L213.304 41.8022C213.304 41.9902 213.152 42.1426 212.964 42.1426C213.039 42.1426 213.1 42.0359 213.1 41.9044L213.1 39.015C213.1 38.9399 213.039 38.8791 212.964 38.8791L213.015 38.6746Z" fill="#1A4B69" mask="url(#path-154-inside-14_3273_3708)"/>
<mask id="path-156-inside-15_3273_3708" fill="white">
<path d="M212.726 34.6996C212.726 34.5681 212.832 34.4614 212.964 34.4614V34.4614C213.095 34.4614 213.202 34.5681 213.202 34.6996L213.202 37.589C213.202 37.7205 213.095 37.8271 212.964 37.8271V37.8271C212.832 37.8271 212.726 37.7205 212.726 37.589L212.726 34.6996Z"/>
</mask>
<path d="M212.726 34.6996C212.726 34.5681 212.832 34.4614 212.964 34.4614V34.4614C213.095 34.4614 213.202 34.5681 213.202 34.6996L213.202 37.589C213.202 37.7205 213.095 37.8271 212.964 37.8271V37.8271C212.832 37.8271 212.726 37.7205 212.726 37.589L212.726 34.6996Z" fill="#41565F"/>
<path d="M212.726 34.6485C212.726 34.4887 212.855 34.3592 213.015 34.3592C213.175 34.3592 213.304 34.4887 213.304 34.6485L213.1 34.6996C213.1 34.6245 213.039 34.5636 212.964 34.5636C212.832 34.5636 212.726 34.6245 212.726 34.6996L212.726 34.6485ZM213.202 37.8271L212.726 37.8271L213.202 37.8271ZM212.726 37.8271L212.726 34.4614L212.726 37.8271ZM213.015 34.3592C213.175 34.3592 213.304 34.4887 213.304 34.6485L213.304 37.4868C213.304 37.6747 213.152 37.8271 212.964 37.8271C213.039 37.8271 213.1 37.7205 213.1 37.589L213.1 34.6996C213.1 34.6245 213.039 34.5636 212.964 34.5636L213.015 34.3592Z" fill="#1A4B69" mask="url(#path-156-inside-15_3273_3708)"/>
<mask id="path-158-inside-16_3273_3708" fill="white">
<path d="M213.736 39.015C213.736 38.8835 213.842 38.7769 213.974 38.7769V38.7769C214.106 38.7769 214.212 38.8835 214.212 39.015L214.212 41.9044C214.212 42.0359 214.106 42.1426 213.974 42.1426V42.1426C213.842 42.1426 213.736 42.0359 213.736 41.9044L213.736 39.015Z"/>
</mask>
<path d="M213.736 39.015C213.736 38.8835 213.842 38.7769 213.974 38.7769V38.7769C214.106 38.7769 214.212 38.8835 214.212 39.015L214.212 41.9044C214.212 42.0359 214.106 42.1426 213.974 42.1426V42.1426C213.842 42.1426 213.736 42.0359 213.736 41.9044L213.736 39.015Z" fill="#41565F"/>
<path d="M213.736 38.9639C213.736 38.8041 213.865 38.6746 214.025 38.6746C214.185 38.6746 214.314 38.8041 214.314 38.9639L214.11 39.015C214.11 38.9399 214.049 38.8791 213.974 38.8791C213.842 38.8791 213.736 38.9399 213.736 39.015L213.736 38.9639ZM214.212 42.1426L213.736 42.1426L214.212 42.1426ZM213.736 42.1426L213.736 38.7769L213.736 42.1426ZM214.025 38.6746C214.185 38.6746 214.314 38.8041 214.314 38.9639L214.314 41.8022C214.314 41.9902 214.162 42.1426 213.974 42.1426C214.049 42.1426 214.11 42.0359 214.11 41.9044L214.11 39.015C214.11 38.9399 214.049 38.8791 213.974 38.8791L214.025 38.6746Z" fill="#1A4B69" mask="url(#path-158-inside-16_3273_3708)"/>
<mask id="path-160-inside-17_3273_3708" fill="white">
<path d="M213.736 34.6996C213.736 34.5681 213.842 34.4614 213.974 34.4614V34.4614C214.106 34.4614 214.212 34.5681 214.212 34.6996L214.212 37.589C214.212 37.7205 214.106 37.8271 213.974 37.8271V37.8271C213.842 37.8271 213.736 37.7205 213.736 37.589L213.736 34.6996Z"/>
</mask>
<path d="M213.736 34.6996C213.736 34.5681 213.842 34.4614 213.974 34.4614V34.4614C214.106 34.4614 214.212 34.5681 214.212 34.6996L214.212 37.589C214.212 37.7205 214.106 37.8271 213.974 37.8271V37.8271C213.842 37.8271 213.736 37.7205 213.736 37.589L213.736 34.6996Z" fill="#41565F"/>
<path d="M213.736 34.6485C213.736 34.4887 213.865 34.3592 214.025 34.3592C214.185 34.3592 214.314 34.4887 214.314 34.6485L214.11 34.6996C214.11 34.6245 214.049 34.5636 213.974 34.5636C213.842 34.5636 213.736 34.6245 213.736 34.6996L213.736 34.6485ZM214.212 37.8271L213.736 37.8271L214.212 37.8271ZM213.736 37.8271L213.736 34.4614L213.736 37.8271ZM214.025 34.3592C214.185 34.3592 214.314 34.4887 214.314 34.6485L214.314 37.4868C214.314 37.6747 214.162 37.8271 213.974 37.8271C214.049 37.8271 214.11 37.7205 214.11 37.589L214.11 34.6996C214.11 34.6245 214.049 34.5636 213.974 34.5636L214.025 34.3592Z" fill="#1A4B69" mask="url(#path-160-inside-17_3273_3708)"/>
<path d="M219.651 37.9438C219.838 37.944 219.993 38.0983 219.993 38.2915C219.993 38.4848 219.838 38.639 219.651 38.6392C219.463 38.6392 219.308 38.4849 219.308 38.2915C219.308 38.0982 219.463 37.9438 219.651 37.9438Z" fill="#1A4B69" stroke="#40565F" stroke-width="0.275998"/>
</g>
<g filter="url(#filter5_d_3273_3708)">
<rect x="197.512" y="170.015" width="30.5716" height="38.1213" rx="4.00733" transform="rotate(90 197.512 170.015)" fill="url(#paint16_linear_3273_3708)"/>
<rect x="197.278" y="170.249" width="30.1032" height="37.6529" rx="3.77313" transform="rotate(90 197.278 170.249)" stroke="#1A4B69" stroke-width="0.468389"/>
</g>
<rect x="192.919" y="187.743" width="28.6573" height="13.4365" rx="0.588965" transform="rotate(-180 192.919 187.743)" fill="#7F9394" stroke="#1A4B69" stroke-width="0.425" stroke-linejoin="round"/>
<path d="M187.025 179.042V179.042C187.025 178.345 186.46 177.781 185.764 177.781L184.361 177.781" stroke="#40565F" stroke-width="0.400733"/>
<path d="M174.239 182.95C174.239 183.392 173.88 183.751 173.438 183.751L169.572 183.751C169.129 183.751 168.77 183.392 168.77 182.95L168.77 182.062L168.77 180.036L168.77 179.101C168.77 178.658 169.129 178.299 169.572 178.299L173.438 178.299C173.88 178.299 174.239 178.658 174.239 179.101L174.239 182.95Z" fill="#ACBBBC"/>
<path d="M168.77 182.062L168.77 182.95C168.77 183.392 169.129 183.751 169.572 183.751L173.438 183.751C173.88 183.751 174.239 183.392 174.239 182.95L174.239 179.101C174.239 178.658 173.88 178.299 173.438 178.299L169.572 178.299C169.129 178.299 168.77 178.658 168.77 179.101L168.77 180.036M168.77 182.062L167.912 182.062M168.77 182.062L168.77 180.036M168.77 180.036L167.912 180.036" stroke="#40565F" stroke-width="0.6375" stroke-linecap="round"/>
<path d="M173.11 179.975L173.11 181.848" stroke="#2F4751" stroke-width="0.6375" stroke-linecap="round" stroke-linejoin="round"/>
<path d="M171.18 179.975L171.18 181.848" stroke="#2F4751" stroke-width="0.6375" stroke-linecap="round" stroke-linejoin="round"/>
<path d="M187.419 179.032L187.132 179.032C186.575 179.032 186.125 179.492 186.125 180.06L186.125 181.988C186.125 182.556 186.575 183.016 187.132 183.016L187.419 183.016C187.817 183.016 188.139 182.687 188.139 182.282L188.139 182.233C188.139 181.854 188.439 181.547 188.81 181.547C189.181 181.547 189.482 181.854 189.482 182.233L189.482 182.706C189.482 182.877 189.618 183.016 189.786 183.016C189.953 183.016 190.089 182.877 190.089 182.706L190.089 179.342C190.089 179.171 189.953 179.032 189.786 179.032C189.618 179.032 189.482 179.171 189.482 179.342L189.482 179.815C189.482 180.194 189.181 180.501 188.81 180.501C188.439 180.501 188.139 180.194 188.139 179.815L188.139 179.767C188.139 179.361 187.817 179.032 187.419 179.032Z" fill="#ACBBBC" stroke="#40565F" stroke-width="0.400733"/>
<rect x="184.788" y="185.305" width="9.243" height="8.55558" rx="0.801465" transform="rotate(-180 184.788 185.305)" fill="#ADBBBC"/>
<path d="M181.879 180.477C181.879 180.34 181.768 180.229 181.632 180.229V180.229C181.495 180.229 181.384 180.34 181.384 180.477L181.384 185.302L181.879 185.302L181.879 180.477Z" fill="#647A82"/>
<path d="M181.632 180.464C181.625 180.464 181.618 180.469 181.618 180.477L181.618 185.067L181.645 185.067L181.645 180.477C181.644 180.47 181.639 180.464 181.632 180.464Z" stroke="#7C9091" stroke-opacity="0.3" stroke-width="0.247323"/>
<path d="M178.947 180.477C178.947 180.34 178.836 180.229 178.699 180.229V180.229C178.563 180.229 178.452 180.34 178.452 180.477L178.452 185.302L178.947 185.302L178.947 180.477Z" fill="#647A82"/>
<path d="M178.7 180.464C178.693 180.464 178.686 180.469 178.686 180.477L178.686 185.067L178.712 185.067L178.712 180.477C178.712 180.47 178.707 180.464 178.7 180.464Z" stroke="#7C9091" stroke-opacity="0.3" stroke-width="0.247323"/>
<path d="M181.879 179.117C181.879 179.254 181.768 179.365 181.632 179.365V179.365C181.495 179.365 181.384 179.254 181.384 179.117L181.384 176.747L181.879 176.747L181.879 179.117Z" fill="#647A82"/>
<path d="M181.632 179.13C181.625 179.13 181.618 179.125 181.618 179.118L181.618 176.981L181.645 176.981L181.645 179.118C181.644 179.125 181.639 179.13 181.632 179.13Z" stroke="#7C9091" stroke-opacity="0.3" stroke-width="0.247323"/>
<path d="M178.947 179.117C178.947 179.254 178.836 179.365 178.699 179.365V179.365C178.563 179.365 178.452 179.254 178.452 179.117L178.452 176.747L178.947 176.747L178.947 179.117Z" fill="#647A82"/>
<path d="M178.7 179.13C178.693 179.13 178.686 179.125 178.686 179.118L178.686 176.981L178.712 176.981L178.712 179.118C178.712 179.125 178.707 179.13 178.7 179.13Z" stroke="#7C9091" stroke-opacity="0.3" stroke-width="0.247323"/>
<path d="M159.199 187.424V187.424C158.324 187.424 157.614 186.714 157.614 185.838L157.614 174.561C157.614 173.344 158.6 172.358 159.817 172.358L184.658 172.358" stroke="#354853" stroke-width="1.275" stroke-linecap="round" stroke-linejoin="round"/>
<path d="M178.453 192.454C179.261 192.454 179.909 193.101 179.91 193.889C179.91 194.677 179.261 195.323 178.453 195.323C177.644 195.323 176.995 194.677 176.995 193.889C176.995 193.1 177.644 192.454 178.453 192.454Z" fill="#88999A" stroke="#40565F" stroke-width="0.6375"/>
<ellipse cx="178.452" cy="193.89" rx="0.523405" ry="0.516667" fill="#1A4B69"/>
<defs>
<filter id="filter0_d_3273_3708" x="131" y="161" width="112" height="62" filterUnits="userSpaceOnUse" color-interpolation-filters="sRGB">
<feFlood flood-opacity="0" result="BackgroundImageFix"/>
<feColorMatrix in="SourceAlpha" type="matrix" values="0 0 0 0 0 0 0 0 0 0 0 0 0 0 0 0 0 0 127 0" result="hardAlpha"/>
<feOffset dy="4"/>
<feGaussianBlur stdDeviation="2"/>
<feComposite in2="hardAlpha" operator="out"/>
<feColorMatrix type="matrix" values="0 0 0 0 0 0 0 0 0 0 0 0 0 0 0 0 0 0 0.25 0"/>
<feBlend mode="normal" in2="BackgroundImageFix" result="effect1_dropShadow_3273_3708"/>
<feBlend mode="normal" in="SourceGraphic" in2="effect1_dropShadow_3273_3708" result="shape"/>
</filter>
<filter id="filter1_d_3273_3708" x="2" y="4" width="283" height="161" filterUnits="userSpaceOnUse" color-interpolation-filters="sRGB">
<feFlood flood-opacity="0" result="BackgroundImageFix"/>
<feColorMatrix in="SourceAlpha" type="matrix" values="0 0 0 0 0 0 0 0 0 0 0 0 0 0 0 0 0 0 127 0" result="hardAlpha"/>
<feOffset dy="4"/>
<feGaussianBlur stdDeviation="2"/>
<feComposite in2="hardAlpha" operator="out"/>
<feColorMatrix type="matrix" values="0 0 0 0 0 0 0 0 0 0 0 0 0 0 0 0 0 0 0.25 0"/>
<feBlend mode="normal" in2="BackgroundImageFix" result="effect1_dropShadow_3273_3708"/>
<feBlend mode="normal" in="SourceGraphic" in2="effect1_dropShadow_3273_3708" result="shape"/>
</filter>
<filter id="filter2_d_3273_3708" x="43.1499" y="96.1499" width="148.7" height="53.7002" filterUnits="userSpaceOnUse" color-interpolation-filters="sRGB">
<feFlood flood-opacity="0" result="BackgroundImageFix"/>
<feColorMatrix in="SourceAlpha" type="matrix" values="0 0 0 0 0 0 0 0 0 0 0 0 0 0 0 0 0 0 127 0" result="hardAlpha"/>
<feOffset dy="4"/>
<feGaussianBlur stdDeviation="2"/>
<feComposite in2="hardAlpha" operator="out"/>
<feColorMatrix type="matrix" values="0 0 0 0 0 0 0 0 0 0 0 0 0 0 0 0 0 0 0.25 0"/>
<feBlend mode="normal" in2="BackgroundImageFix" result="effect1_dropShadow_3273_3708"/>
<feBlend mode="normal" in="SourceGraphic" in2="effect1_dropShadow_3273_3708" result="shape"/>
</filter>
<filter id="filter3_d_3273_3708" x="18.1499" y="19.1499" width="120.7" height="44.7002" filterUnits="userSpaceOnUse" color-interpolation-filters="sRGB">
<feFlood flood-opacity="0" result="BackgroundImageFix"/>
<feColorMatrix in="SourceAlpha" type="matrix" values="0 0 0 0 0 0 0 0 0 0 0 0 0 0 0 0 0 0 127 0" result="hardAlpha"/>
<feOffset dy="4"/>
<feGaussianBlur stdDeviation="2"/>
<feComposite in2="hardAlpha" operator="out"/>
<feColorMatrix type="matrix" values="0 0 0 0 0 0 0 0 0 0 0 0 0 0 0 0 0 0 0.25 0"/>
<feBlend mode="normal" in2="BackgroundImageFix" result="effect1_dropShadow_3273_3708"/>
<feBlend mode="normal" in="SourceGraphic" in2="effect1_dropShadow_3273_3708" result="shape"/>
</filter>
<filter id="filter4_d_3273_3708" x="190.447" y="25.9995" width="56.1055" height="32.0005" filterUnits="userSpaceOnUse" color-interpolation-filters="sRGB">
<feFlood flood-opacity="0" result="BackgroundImageFix"/>
<feColorMatrix in="SourceAlpha" type="matrix" values="0 0 0 0 0 0 0 0 0 0 0 0 0 0 0 0 0 0 127 0" result="hardAlpha"/>
<feOffset dy="4"/>
<feGaussianBlur stdDeviation="2"/>
<feComposite in2="hardAlpha" operator="out"/>
<feColorMatrix type="matrix" values="0 0 0 0 0 0 0 0 0 0 0 0 0 0 0 0 0 0 0.25 0"/>
<feBlend mode="normal" in2="BackgroundImageFix" result="effect1_dropShadow_3273_3708"/>
<feBlend mode="normal" in="SourceGraphic" in2="effect1_dropShadow_3273_3708" result="shape"/>
</filter>
<filter id="filter5_d_3273_3708" x="155.391" y="170.015" width="46.1211" height="38.5718" filterUnits="userSpaceOnUse" color-interpolation-filters="sRGB">
<feFlood flood-opacity="0" result="BackgroundImageFix"/>
<feColorMatrix in="SourceAlpha" type="matrix" values="0 0 0 0 0 0 0 0 0 0 0 0 0 0 0 0 0 0 127 0" result="hardAlpha"/>
<feOffset dy="4"/>
<feGaussianBlur stdDeviation="2"/>
<feComposite in2="hardAlpha" operator="out"/>
<feColorMatrix type="matrix" values="0 0 0 0 0 0 0 0 0 0 0 0 0 0 0 0 0 0 0.25 0"/>
<feBlend mode="normal" in2="BackgroundImageFix" result="effect1_dropShadow_3273_3708"/>
<feBlend mode="normal" in="SourceGraphic" in2="effect1_dropShadow_3273_3708" result="shape"/>
</filter>
<linearGradient id="paint0_linear_3273_3708" x1="183.6" y1="166.5" x2="191.434" y2="166.5" gradientUnits="userSpaceOnUse">
<stop stop-color="#36505D"/>
<stop offset="0.65" stop-color="#909EA5"/>
</linearGradient>
<linearGradient id="paint1_linear_3273_3708" x1="186.12" y1="175.991" x2="191.434" y2="175.991" gradientUnits="userSpaceOnUse">
<stop stop-color="#808E99"/>
<stop offset="0.65" stop-color="#BBCAD0"/>
</linearGradient>
<linearGradient id="paint2_linear_3273_3708" x1="183.6" y1="171.242" x2="191.434" y2="171.242" gradientUnits="userSpaceOnUse">
<stop stop-color="#6C7B89"/>
<stop offset="0.65" stop-color="#E6F4F9"/>
</linearGradient>
<linearGradient id="paint3_linear_3273_3708" x1="183.6" y1="186.375" x2="191.427" y2="186.375" gradientUnits="userSpaceOnUse">
<stop stop-color="#36505D"/>
<stop offset="0.65" stop-color="#909EA5"/>
</linearGradient>
<linearGradient id="paint4_linear_3273_3708" x1="186.118" y1="195.873" x2="191.427" y2="195.873" gradientUnits="userSpaceOnUse">
<stop stop-color="#808E99"/>
<stop offset="0.65" stop-color="#BBCAD0"/>
</linearGradient>
<linearGradient id="paint5_linear_3273_3708" x1="183.6" y1="191.116" x2="191.427" y2="191.116" gradientUnits="userSpaceOnUse">
<stop stop-color="#6C7B89"/>
<stop offset="0.65" stop-color="#E6F4F9"/>
</linearGradient>
<linearGradient id="paint6_linear_3273_3708" x1="429.566" y1="220.768" x2="429.566" y2="-73.1661" gradientUnits="userSpaceOnUse">
<stop stop-color="#D4DDE0"/>
<stop offset="1" stop-color="#CAD6DA"/>
</linearGradient>
<linearGradient id="paint7_linear_3273_3708" x1="130.6" y1="75.4999" x2="136.399" y2="75.4999" gradientUnits="userSpaceOnUse">
<stop stop-color="#36505D"/>
<stop offset="0.65" stop-color="#909EA5"/>
</linearGradient>
<linearGradient id="paint8_linear_3273_3708" x1="132.465" y1="82.5253" x2="136.399" y2="82.5253" gradientUnits="userSpaceOnUse">
<stop stop-color="#808E99"/>
<stop offset="0.65" stop-color="#BBCAD0"/>
</linearGradient>
<linearGradient id="paint9_linear_3273_3708" x1="130.6" y1="79.0102" x2="136.399" y2="79.0102" gradientUnits="userSpaceOnUse">
<stop stop-color="#6C7B89"/>
<stop offset="0.65" stop-color="#E6F4F9"/>
</linearGradient>
<linearGradient id="paint10_linear_3273_3708" x1="130.6" y1="90.8749" x2="136.394" y2="90.8749" gradientUnits="userSpaceOnUse">
<stop stop-color="#36505D"/>
<stop offset="0.65" stop-color="#909EA5"/>
</linearGradient>
<linearGradient id="paint11_linear_3273_3708" x1="132.464" y1="97.9057" x2="136.394" y2="97.9057" gradientUnits="userSpaceOnUse">
<stop stop-color="#808E99"/>
<stop offset="0.65" stop-color="#BBCAD0"/>
</linearGradient>
<linearGradient id="paint12_linear_3273_3708" x1="130.6" y1="94.3847" x2="136.394" y2="94.3847" gradientUnits="userSpaceOnUse">
<stop stop-color="#6C7B89"/>
<stop offset="0.65" stop-color="#E6F4F9"/>
</linearGradient>
<linearGradient id="paint13_linear_3273_3708" x1="202.178" y1="37.9995" x2="211.511" y2="37.9995" gradientUnits="userSpaceOnUse">
<stop stop-color="#39464A"/>
<stop offset="0.5" stop-color="#DCE8E8"/>
<stop offset="0.82" stop-color="#ADB8BD"/>
</linearGradient>
<linearGradient id="paint14_linear_3273_3708" x1="225.397" y1="37.9995" x2="234.73" y2="37.9995" gradientUnits="userSpaceOnUse">
<stop stop-color="#39464A"/>
<stop offset="0.5" stop-color="#DCE8E8"/>
<stop offset="0.82" stop-color="#ADB8BD"/>
</linearGradient>
<linearGradient id="paint15_linear_3273_3708" x1="217.494" y1="27.0507" x2="220.336" y2="48.7253" gradientUnits="userSpaceOnUse">
<stop offset="0.06" stop-color="#526266"/>
<stop offset="0.226858" stop-color="#AFBDC2"/>
<stop offset="0.406434" stop-color="#E6F4F9"/>
<stop offset="0.706708" stop-color="#95A2A7"/>
<stop offset="1" stop-color="#293539"/>
</linearGradient>
<linearGradient id="paint16_linear_3273_3708" x1="228.084" y1="189.076" x2="197.512" y2="189.076" gradientUnits="userSpaceOnUse">
<stop stop-color="#B0C2C6"/>
<stop offset="0.132134" stop-color="#94A4A8"/>
<stop offset="0.449304" stop-color="#D9E4E6"/>
<stop offset="1" stop-color="#EBF5F6"/>
</linearGradient>
</defs>
</svg>
